<svg width="120" height="120" viewBox="0 0 120 120" fill="none" xmlns="http://www.w3.org/2000/svg">
<path d="M43.4302 9H76.5697C87.6791 9 92.5419 9.03535 97.7659 10.6719C103.127 12.6478 107.352 16.8731 109.328 22.2342C110.965 27.4573 111 32.3216 111 43.4302V76.5697C111 87.6791 110.965 92.5418 109.328 97.7659C107.352 103.127 103.127 107.352 97.7659 109.327C92.5419 110.965 87.6795 111 76.5697 111H43.4302C32.3203 111 27.4572 110.965 22.2342 109.327C16.8732 107.352 12.6479 103.127 10.6719 97.7658C9.03533 92.5418 9 87.6791 9 76.5697V43.4302C9 32.3216 9.03535 27.4573 10.6719 22.2342C12.6478 16.873 16.873 12.6478 22.2342 10.6719C27.4573 9.03535 32.3207 9 43.4302 9Z" stroke="white" stroke-width="2"/>
<rect x="8" y="8" width="104" height="104" rx="21" fill="#202020"/>
<g filter="url(#filter0_d_1_3)">
<rect x="15.8" y="48.7333" width="89.2667" height="45.0667" rx="14" fill="white"/>
</g>
<g filter="url(#filter1_d_1_3)">
<rect x="19" y="36" width="82" height="51" rx="12" fill="white"/>
</g>
<circle cx="78" cy="61" r="10" fill="#202020"/>
<circle cx="42" cy="61" r="10" fill="#202020"/>
<defs>
<filter id="filter0_d_1_3" x="10.8" y="46.7333" width="99.2667" height="55.0667" filterUnits="userSpaceOnUse" color-interpolation-filters="sRGB">
<feFlood flood-opacity="0" result="BackgroundImageFix"/>
<feColorMatrix in="SourceAlpha" type="matrix" values="0 0 0 0 0 0 0 0 0 0 0 0 0 0 0 0 0 0 127 0" result="hardAlpha"/>
<feOffset dy="3"/>
<feGaussianBlur stdDeviation="2.5"/>
<feComposite in2="hardAlpha" operator="out"/>
<feColorMatrix type="matrix" values="0 0 0 0 0 0 0 0 0 0 0 0 0 0 0 0 0 0 0.25 0"/>
<feBlend mode="normal" in2="BackgroundImageFix" result="effect1_dropShadow_1_3"/>
<feBlend mode="normal" in="SourceGraphic" in2="effect1_dropShadow_1_3" result="shape"/>
</filter>
<filter id="filter1_d_1_3" x="14" y="34" width="92" height="61" filterUnits="userSpaceOnUse" color-interpolation-filters="sRGB">
<feFlood flood-opacity="0" result="BackgroundImageFix"/>
<feColorMatrix in="SourceAlpha" type="matrix" values="0 0 0 0 0 0 0 0 0 0 0 0 0 0 0 0 0 0 127 0" result="hardAlpha"/>
<feOffset dy="3"/>
<feGaussianBlur stdDeviation="2.5"/>
<feComposite in2="hardAlpha" operator="out"/>
<feColorMatrix type="matrix" values="0 0 0 0 0 0 0 0 0 0 0 0 0 0 0 0 0 0 0.25 0"/>
<feBlend mode="normal" in2="BackgroundImageFix" result="effect1_dropShadow_1_3"/>
<feBlend mode="normal" in="SourceGraphic" in2="effect1_dropShadow_1_3" result="shape"/>
</filter>
</defs>
</svg>
