<svg width="104" height="104" viewBox="0 0 104 104" fill="none" xmlns="http://www.w3.org/2000/svg">
<g filter="url(#filter0_ii_1_64)">
<g clip-path="url(#clip0_1_64)">
<rect width="104" height="104" rx="27" fill="url(#paint0_linear_1_64)"/>
<g filter="url(#filter1_f_1_64)">
<circle cx="91.4713" cy="101.791" r="45.1231" fill="#0C4ECE"/>
</g>
<g filter="url(#filter2_f_1_64)">
<circle cx="91.4713" cy="101.791" r="45.1231" fill="#0C4ECE"/>
</g>
<path d="M36.2026 39.3051L44.2013 38.1616C48.1485 37.5973 50.9616 37.1969 53.2278 37.0522C55.4639 36.9093 56.9451 37.0351 58.2272 37.4025C60.7787 38.1335 63.1607 39.5413 65.031 41.4247C65.9707 42.3711 66.794 43.609 67.7466 45.6375C68.7118 47.6929 69.7164 50.3499 71.1241 54.0803L73.2469 59.7058C74.6546 63.4363 75.6555 66.0938 76.2609 68.2007C76.8584 70.2798 77.0059 71.6145 76.8401 72.7189C76.5099 74.9168 75.3798 76.8267 73.613 78.1752C72.7253 78.8527 71.4857 79.3675 69.3763 79.8459C67.2384 80.3308 64.4267 80.7346 60.4795 81.2989L55.5027 82.0104C51.0268 82.6503 47.8179 83.1068 45.2276 83.2723C42.667 83.4359 40.9339 83.2952 39.413 82.8594C36.4415 82.008 33.6681 80.3681 31.4901 78.1749C30.3753 77.0522 29.4168 75.6013 28.3262 73.2789C27.2228 70.9294 26.0762 67.8971 24.4798 63.6666L23.4351 60.8982C22.0274 57.1677 21.0265 54.5102 20.4211 52.4033C19.8236 50.3241 19.6771 48.9894 19.843 47.8849C20.1731 45.6871 21.3023 43.7772 23.069 42.4288C23.9569 41.7512 25.1969 41.2364 27.3067 40.7579C29.4446 40.2731 32.2555 39.8694 36.2026 39.3051Z" stroke="url(#paint1_linear_1_64)" stroke-width="5" style="mix-blend-mode:overlay"/>
<g filter="url(#filter3_i_1_64)">
<ellipse cx="7.79488" cy="7.90949" rx="7.79488" ry="7.90949" transform="matrix(0.989935 -0.141525 0.353056 0.935602 61.674 20.0376)" fill="white"/>
</g>
<g filter="url(#filter4_ddddd_1_64)">
<mask id="path-6-inside-1_1_64" fill="white">
<path d="M57.7758 22.2295C57.5085 24.1277 57.7367 26.1921 58.5268 28.2861C61.2097 35.3959 69.4707 40.4385 77.0942 39.3486C78.0834 39.2072 79.008 38.9694 79.8627 38.6484C80.155 39.4161 80.4632 40.2299 80.7895 41.0947L82.727 46.2295C85.5133 53.6131 86.9067 57.3052 86.4506 60.3428C86.0493 63.0147 84.6766 65.3373 82.5287 66.9766C80.087 68.8402 76.1803 69.3987 68.3676 70.5156L61.5649 71.4883C53.7525 72.6052 49.846 73.1635 46.3198 72.1533C43.218 71.2646 40.3228 69.5522 38.0493 67.2627C35.4646 64.6598 34.071 60.9679 31.2846 53.584L29.3471 48.4492C26.5608 41.0654 25.1673 37.3736 25.6235 34.3359C26.0248 31.664 27.3975 29.3414 29.5453 27.7021C31.9871 25.8385 35.8938 25.28 43.7065 24.1631L50.5092 23.1914C53.4095 22.7768 55.7718 22.4385 57.7758 22.2295Z"/>
</mask>
<path d="M57.7758 22.2295C57.5085 24.1277 57.7367 26.1921 58.5268 28.2861C61.2097 35.3959 69.4707 40.4385 77.0942 39.3486C78.0834 39.2072 79.008 38.9694 79.8627 38.6484C80.155 39.4161 80.4632 40.2299 80.7895 41.0947L82.727 46.2295C85.5133 53.6131 86.9067 57.3052 86.4506 60.3428C86.0493 63.0147 84.6766 65.3373 82.5287 66.9766C80.087 68.8402 76.1803 69.3987 68.3676 70.5156L61.5649 71.4883C53.7525 72.6052 49.846 73.1635 46.3198 72.1533C43.218 71.2646 40.3228 69.5522 38.0493 67.2627C35.4646 64.6598 34.071 60.9679 31.2846 53.584L29.3471 48.4492C26.5608 41.0654 25.1673 37.3736 25.6235 34.3359C26.0248 31.664 27.3975 29.3414 29.5453 27.7021C31.9871 25.8385 35.8938 25.28 43.7065 24.1631L50.5092 23.1914C53.4095 22.7768 55.7718 22.4385 57.7758 22.2295Z" fill="url(#paint2_linear_1_64)"/>
<path d="M57.7758 22.2295L61.7367 22.7872L62.4502 17.7202L57.3609 18.2511L57.7758 22.2295ZM58.5268 28.2861L54.7843 29.6982L54.7844 29.6984L58.5268 28.2861ZM77.0942 39.3486L77.6603 43.3084L77.6604 43.3084L77.0942 39.3486ZM79.8627 38.6484L83.601 37.2252L82.1842 33.5039L78.4565 34.9038L79.8627 38.6484ZM80.7895 41.0947L84.5319 39.6826L84.5319 39.6825L80.7895 41.0947ZM82.727 46.2295L78.9845 47.6416L78.9846 47.6417L82.727 46.2295ZM86.4506 60.3428L90.4063 60.9368L90.4063 60.9367L86.4506 60.3428ZM82.5287 66.9766L84.9556 70.1563L84.9556 70.1563L82.5287 66.9766ZM68.3676 70.5156L67.8015 66.5559L67.8015 66.5559L68.3676 70.5156ZM61.5649 71.4883L62.131 75.448L62.131 75.448L61.5649 71.4883ZM46.3198 72.1533L45.218 75.9986L45.2181 75.9986L46.3198 72.1533ZM38.0493 67.2627L35.2109 70.0812L35.211 70.0812L38.0493 67.2627ZM31.2846 53.584L27.5422 54.9961L27.5422 54.9962L31.2846 53.584ZM29.3471 48.4492L33.0895 47.0371L33.0895 47.037L29.3471 48.4492ZM25.6235 34.3359L21.6678 33.7419L21.6678 33.7419L25.6235 34.3359ZM29.5453 27.7021L27.1185 24.5224L27.1185 24.5224L29.5453 27.7021ZM43.7065 24.1631L43.1409 20.2033L43.1404 20.2033L43.7065 24.1631ZM50.5092 23.1914L51.0748 27.1512L51.0753 27.1511L50.5092 23.1914ZM57.7758 22.2295L53.8149 21.6717C53.4468 24.2855 53.7762 27.0263 54.7843 29.6982L58.5268 28.2861L62.2693 26.8741C61.6972 25.3578 61.5702 23.9699 61.7367 22.7872L57.7758 22.2295ZM58.5268 28.2861L54.7844 29.6984C58.113 38.5192 68.1363 44.6699 77.6603 43.3084L77.0942 39.3486L76.5281 35.3889C70.8052 36.207 64.3064 32.2726 62.2692 26.8739L58.5268 28.2861ZM77.0942 39.3486L77.6604 43.3084C78.9263 43.1273 80.1333 42.8196 81.2689 42.3931L79.8627 38.6484L78.4565 34.9038C77.8826 35.1193 77.2404 35.287 76.528 35.3889L77.0942 39.3486ZM79.8627 38.6484L76.1245 40.0716C76.415 40.8347 76.7217 41.6447 77.0471 42.507L80.7895 41.0947L84.5319 39.6825C84.2046 38.8152 83.895 37.9976 83.601 37.2252L79.8627 38.6484ZM80.7895 41.0947L77.047 42.5069L78.9845 47.6416L82.727 46.2295L86.4694 44.8174L84.5319 39.6826L80.7895 41.0947ZM82.727 46.2295L78.9846 47.6417C80.4016 51.3968 81.376 53.9878 81.9603 56.0207C82.54 58.0379 82.5972 59.0681 82.495 59.7489L86.4506 60.3428L90.4063 60.9367C90.7601 58.5798 90.3486 56.2453 89.6491 53.8111C88.9541 51.3927 87.8387 48.4459 86.4694 44.8173L82.727 46.2295ZM86.4506 60.3428L82.495 59.7487C82.248 61.3934 81.4232 62.7884 80.1019 63.7969L82.5287 66.9766L84.9556 70.1563C87.9299 67.8862 89.8507 64.6361 90.4063 60.9368L86.4506 60.3428ZM82.5287 66.9766L80.1019 63.7968C79.5547 64.2145 78.6244 64.661 76.5776 65.1252C74.5147 65.593 71.7747 65.9879 67.8015 66.5559L68.3676 70.5156L68.9337 74.4754C72.7732 73.9265 75.8929 73.4836 78.347 72.927C80.8171 72.3668 83.061 71.6022 84.9556 70.1563L82.5287 66.9766ZM68.3676 70.5156L67.8015 66.5559L60.9987 67.5286L61.5649 71.4883L62.131 75.448L68.9338 74.4754L68.3676 70.5156ZM61.5649 71.4883L60.9988 67.5285C52.8112 68.6991 49.9288 69.0263 47.4214 68.308L46.3198 72.1533L45.2181 75.9986C49.7632 77.3007 54.6938 76.5113 62.131 75.448L61.5649 71.4883ZM46.3198 72.1533L47.4215 68.3081C44.9772 67.6077 42.6798 66.249 40.8876 64.4442L38.0493 67.2627L35.211 70.0812C37.9658 72.8554 41.4588 74.9215 45.218 75.9986L46.3198 72.1533ZM38.0493 67.2627L40.8876 64.4442C39.0497 62.5934 37.9471 59.9101 35.027 52.1718L31.2846 53.584L27.5422 54.9962C30.1948 62.0257 31.8794 66.7262 35.2109 70.0812L38.0493 67.2627ZM31.2846 53.584L35.027 52.1719L33.0895 47.0371L29.3471 48.4492L25.6047 49.8614L27.5422 54.9961L31.2846 53.584ZM29.3471 48.4492L33.0895 47.037C31.6725 43.2818 30.698 40.6909 30.1137 38.6579C29.534 36.6408 29.4769 35.6107 29.5791 34.93L25.6235 34.3359L21.6678 33.7419C21.3139 36.0988 21.7254 38.4334 22.425 40.8676C23.12 43.2859 24.2354 46.2328 25.6047 49.8614L29.3471 48.4492ZM25.6235 34.3359L29.5791 34.93C29.8261 33.2853 30.6509 31.8903 31.9722 30.8819L29.5453 27.7021L27.1185 24.5224C24.1441 26.7926 22.2234 30.0426 21.6678 33.7419L25.6235 34.3359ZM29.5453 27.7021L31.9722 30.8819C32.5194 30.4642 33.4497 30.0177 35.4965 29.5536C37.5594 29.0857 40.2994 28.6908 44.2726 28.1228L43.7065 24.1631L43.1404 20.2033C39.3009 20.7523 36.1812 21.1951 33.7271 21.7517C31.257 22.3119 29.0131 23.0765 27.1185 24.5224L29.5453 27.7021ZM43.7065 24.1631L44.2721 28.1229L51.0748 27.1512L50.5092 23.1914L49.9436 19.2316L43.1409 20.2033L43.7065 24.1631ZM50.5092 23.1914L51.0753 27.1511C54.0023 26.7327 56.2793 26.4073 58.1908 26.2079L57.7758 22.2295L57.3609 18.2511C55.2643 18.4697 52.8167 18.8208 49.9431 19.2317L50.5092 23.1914Z" fill="url(#paint3_linear_1_64)" mask="url(#path-6-inside-1_1_64)"/>
</g>
<mask id="path-8-inside-2_1_64" fill="white">
<path d="M57.7766 22.2295C57.5092 24.1277 57.7365 26.1921 58.5266 28.2861C61.2094 35.3958 69.4706 40.4383 77.0939 39.3486C78.083 39.2072 79.0078 38.9694 79.8625 38.6484C80.1548 39.4162 80.4638 40.2298 80.7902 41.0947L82.7277 46.2295C85.514 53.6132 86.9065 57.3052 86.4504 60.3428C86.0491 63.0148 84.6764 65.3373 82.5285 66.9766C80.0867 68.8401 76.1799 69.3987 68.3674 70.5156L61.5646 71.4883C53.7522 72.6052 49.8458 73.1636 46.3195 72.1533C43.2177 71.2646 40.3226 69.5523 38.049 67.2627C35.4643 64.6598 34.0707 60.9679 31.2844 53.584L29.3469 48.4492C26.5606 41.0655 25.1671 37.3735 25.6232 34.3359C26.0245 31.6639 27.3982 29.3414 29.5461 27.7021C31.9879 25.8388 35.8942 25.2799 43.7062 24.1631L50.5099 23.1914C53.4104 22.7767 55.7724 22.4385 57.7766 22.2295Z"/>
</mask>
<path d="M57.7766 22.2295L58.7668 22.3689L58.9452 21.1022L57.6728 21.2349L57.7766 22.2295ZM58.5266 28.2861L57.5909 28.6391L57.591 28.6392L58.5266 28.2861ZM77.0939 39.3486L77.2354 40.3386L77.2355 40.3386L77.0939 39.3486ZM79.8625 38.6484L80.7971 38.2926L80.4429 37.3623L79.511 37.7123L79.8625 38.6484ZM80.7902 41.0947L81.7258 40.7417L81.7258 40.7417L80.7902 41.0947ZM82.7277 46.2295L81.7921 46.5825L81.7921 46.5825L82.7277 46.2295ZM86.4504 60.3428L87.4393 60.4913L87.4393 60.4913L86.4504 60.3428ZM82.5285 66.9766L83.1352 67.7715L83.1352 67.7715L82.5285 66.9766ZM68.3674 70.5156L68.2258 69.5257H68.2258L68.3674 70.5156ZM61.5646 71.4883L61.7062 72.4782H61.7062L61.5646 71.4883ZM46.3195 72.1533L46.0441 73.1146L46.0441 73.1146L46.3195 72.1533ZM38.049 67.2627L37.3394 67.9673L38.049 67.2627ZM31.2844 53.584L30.3488 53.937L30.3488 53.937L31.2844 53.584ZM29.3469 48.4492L30.2825 48.0962L30.2825 48.0962L29.3469 48.4492ZM25.6232 34.3359L24.6343 34.1874L24.6343 34.1874L25.6232 34.3359ZM29.5461 27.7021L28.9394 26.9072L28.9394 26.9072L29.5461 27.7021ZM43.7062 24.1631L43.5649 23.1731L43.5647 23.1732L43.7062 24.1631ZM50.5099 23.1914L50.6513 24.1814L50.6515 24.1813L50.5099 23.1914ZM57.7766 22.2295L56.7863 22.09C56.4939 24.1669 56.7462 26.4003 57.5909 28.6391L58.5266 28.2861L59.4622 27.9331C58.7267 25.9838 58.5246 24.0885 58.7668 22.3689L57.7766 22.2295ZM58.5266 28.2861L57.591 28.6392C60.4353 36.1766 69.137 41.4962 77.2354 40.3386L77.0939 39.3486L76.9524 38.3587C69.8042 39.3805 61.9836 34.615 59.4622 27.9331L58.5266 28.2861ZM77.0939 39.3486L77.2355 40.3386C78.2938 40.1872 79.2891 39.9319 80.214 39.5846L79.8625 38.6484L79.511 37.7123C78.7265 38.0068 77.8723 38.2272 76.9524 38.3587L77.0939 39.3486ZM79.8625 38.6484L78.9279 39.0042C79.22 39.7715 79.5287 40.5841 79.8546 41.4478L80.7902 41.0947L81.7258 40.7417C81.399 39.8755 81.0895 39.0609 80.7971 38.2926L79.8625 38.6484ZM80.7902 41.0947L79.8546 41.4478L81.7921 46.5825L82.7277 46.2295L83.6633 45.8765L81.7258 40.7417L80.7902 41.0947ZM82.7277 46.2295L81.7921 46.5825C83.1912 50.2901 84.2183 53.0146 84.8438 55.192C85.4682 57.3655 85.6581 58.8849 85.4615 60.1943L86.4504 60.3428L87.4393 60.4913C87.6988 58.763 87.4204 56.9176 86.7661 54.6398C86.1128 52.3659 85.0505 49.5525 83.6633 45.8764L82.7277 46.2295ZM86.4504 60.3428L85.4615 60.1943C85.0988 62.6094 83.863 64.7001 81.9218 66.1816L82.5285 66.9766L83.1352 67.7715C85.4897 65.9745 86.9994 63.4201 87.4393 60.4913L86.4504 60.3428ZM82.5285 66.9766L81.9218 66.1816C80.8693 66.9849 79.4464 67.5506 77.2408 68.0508C75.0312 68.552 72.1488 68.9648 68.2258 69.5257L68.3674 70.5156L68.5089 71.5056C72.3985 70.9495 75.3758 70.5246 77.6831 70.0013C79.9945 69.4771 81.7459 68.8318 83.1352 67.7715L82.5285 66.9766ZM68.3674 70.5156L68.2258 69.5257L61.4231 70.4983L61.5646 71.4883L61.7062 72.4782L68.5089 71.5056L68.3674 70.5156ZM61.5646 71.4883L61.4231 70.4983C53.5168 71.6287 49.8665 72.1293 46.5949 71.192L46.3195 72.1533L46.0441 73.1146C49.8251 74.1979 53.9875 73.5817 61.7062 72.4782L61.5646 71.4883ZM46.3195 72.1533L46.595 71.192C43.6575 70.3503 40.9118 68.7265 38.7586 66.5581L38.049 67.2627L37.3394 67.9673C39.7333 70.3781 42.7779 72.1788 46.0441 73.1146L46.3195 72.1533ZM38.049 67.2627L38.7586 66.5581C36.3606 64.1432 35.0398 60.7034 32.22 53.2309L31.2844 53.584L30.3488 53.937C33.1017 61.2323 34.568 65.1764 37.3394 67.9673L38.049 67.2627ZM31.2844 53.584L32.22 53.231L30.2825 48.0962L29.3469 48.4492L28.4113 48.8023L30.3488 53.937L31.2844 53.584ZM29.3469 48.4492L30.2825 48.0962C28.8834 44.3885 27.856 41.6641 27.2302 39.4866C26.6056 37.3131 26.4155 35.7937 26.6121 34.4844L25.6232 34.3359L24.6343 34.1874C24.3748 35.9158 24.6534 37.7612 25.308 40.039C25.9615 42.3128 27.0241 45.1262 28.4113 48.8023L29.3469 48.4492ZM25.6232 34.3359L26.6121 34.4845C26.9748 32.0695 28.2114 29.9788 30.1528 28.4971L29.5461 27.7021L28.9394 26.9072C26.5851 28.7041 25.0742 31.2584 24.6343 34.1874L25.6232 34.3359ZM29.5461 27.7021L30.1527 28.4971C31.2053 27.6939 32.6281 27.1281 34.8335 26.6279C37.0429 26.1268 39.925 25.7138 43.8478 25.153L43.7062 24.1631L43.5647 23.1732C39.6754 23.7292 36.6983 24.1541 34.3911 24.6775C32.0799 25.2017 30.3287 25.847 28.9394 26.9072L29.5461 27.7021ZM43.7062 24.1631L43.8476 25.153L50.6513 24.1814L50.5099 23.1914L50.3686 22.2015L43.5649 23.1731L43.7062 24.1631ZM50.5099 23.1914L50.6515 24.1813C53.5587 23.7657 55.8993 23.4307 57.8803 23.2241L57.7766 22.2295L57.6728 21.2349C55.6456 21.4463 53.2622 21.7878 50.3684 22.2015L50.5099 23.1914Z" fill="url(#paint4_linear_1_64)" mask="url(#path-8-inside-2_1_64)"/>
<g style="mix-blend-mode:overlay" opacity="0.2">
<path d="M-23.6827 49.3205L-15.6839 48.177C-11.739 47.613 -8.9201 47.2112 -6.64686 47.066C-4.40187 46.9226 -2.89968 47.0478 -1.59104 47.4227C0.9908 48.1625 3.40065 49.5874 5.2931 51.4931C6.2523 52.4591 7.08587 53.7151 8.0421 55.7512C9.01036 57.8131 10.0178 60.4765 11.4247 64.2049L13.5475 69.8304C14.9544 73.5585 15.9571 76.2221 16.5644 78.3354C17.1642 80.4228 17.3156 81.777 17.1463 82.9043C16.8122 85.1283 15.6694 87.0612 13.8817 88.4257C12.9755 89.1172 11.7163 89.6362 9.59854 90.1165C7.45403 90.6029 4.63639 91.0079 0.691457 91.5719L-4.28528 92.2834C-8.75899 92.923 -11.9746 93.3811 -14.572 93.547C-17.141 93.7111 -18.8948 93.571 -20.4421 93.1276C-23.444 92.2675 -26.246 90.6107 -28.4463 88.395C-29.5805 87.2527 -30.5486 85.783 -31.643 83.4526C-32.7493 81.0968 -33.8976 78.0585 -35.4931 73.8303L-36.5378 71.0619C-37.9447 67.3334 -38.9487 64.6695 -39.556 62.5561C-40.1557 60.4689 -40.3069 59.1154 -40.1376 57.9881C-39.8035 55.764 -38.6607 53.8312 -36.8729 52.4668C-35.9668 51.7751 -34.7079 51.2553 -32.5901 50.775C-30.4456 50.2886 -27.6276 49.8845 -23.6827 49.3205Z" stroke="url(#paint5_linear_1_64)" stroke-width="4.7241"/>
</g>
<g style="mix-blend-mode:overlay" opacity="0.3">
<path d="M94.1211 29.1757L102.12 28.0322C106.065 27.4682 108.884 27.0665 111.157 26.9212C113.402 26.7778 114.904 26.903 116.213 27.2779C118.795 28.0177 121.204 29.4426 123.097 31.3483C124.056 32.3143 124.89 33.5703 125.846 35.6065C126.814 37.6683 127.822 40.3317 129.229 44.0601L131.351 49.6856C132.758 53.4137 133.761 56.0773 134.368 58.1907C134.968 60.278 135.119 61.6322 134.95 62.7595C134.616 64.9835 133.473 66.9165 131.686 68.2809C130.779 68.9724 129.52 69.4914 127.402 69.9717C125.258 70.4581 122.44 70.8631 118.495 71.4271L113.519 72.1386C109.045 72.7782 105.829 73.2363 103.232 73.4022C100.663 73.5663 98.909 73.4262 97.3617 72.9828C94.3598 72.1227 91.5578 70.4659 89.3575 68.2502C88.2233 67.1079 87.2552 65.6382 86.1608 63.3078C85.0545 60.952 83.9062 57.9137 82.3107 53.6855L81.266 50.9171C79.8591 47.1887 78.8551 44.5247 78.2478 42.4113C77.6481 40.3241 77.4969 38.9706 77.6662 37.8433C78.0003 35.6192 79.1431 33.6865 80.9309 32.322C81.837 31.6304 83.0959 31.1105 85.2137 30.6302C87.3582 30.1438 90.1762 29.7397 94.1211 29.1757Z" stroke="url(#paint6_linear_1_64)" stroke-width="4.7241"/>
</g>
</g>
</g>
<defs>
<filter id="filter0_ii_1_64" x="-1" y="-1" width="106" height="106" filterUnits="userSpaceOnUse" color-interpolation-filters="sRGB">
<feFlood flood-opacity="0" result="BackgroundImageFix"/>
<feBlend mode="normal" in="SourceGraphic" in2="BackgroundImageFix" result="shape"/>
<feColorMatrix in="SourceAlpha" type="matrix" values="0 0 0 0 0 0 0 0 0 0 0 0 0 0 0 0 0 0 127 0" result="hardAlpha"/>
<feOffset dx="1" dy="1"/>
<feGaussianBlur stdDeviation="0.5"/>
<feComposite in2="hardAlpha" operator="arithmetic" k2="-1" k3="1"/>
<feColorMatrix type="matrix" values="0 0 0 0 1 0 0 0 0 1 0 0 0 0 1 0 0 0 0.1 0"/>
<feBlend mode="plus-lighter" in2="shape" result="effect1_innerShadow_1_64"/>
<feColorMatrix in="SourceAlpha" type="matrix" values="0 0 0 0 0 0 0 0 0 0 0 0 0 0 0 0 0 0 127 0" result="hardAlpha"/>
<feOffset dx="-1" dy="-1"/>
<feGaussianBlur stdDeviation="0.5"/>
<feComposite in2="hardAlpha" operator="arithmetic" k2="-1" k3="1"/>
<feColorMatrix type="matrix" values="0 0 0 0 1 0 0 0 0 1 0 0 0 0 1 0 0 0 0.1 0"/>
<feBlend mode="plus-lighter" in2="effect1_innerShadow_1_64" result="effect2_innerShadow_1_64"/>
</filter>
<filter id="filter1_f_1_64" x="-36.2517" y="-25.9325" width="255.446" height="255.446" filterUnits="userSpaceOnUse" color-interpolation-filters="sRGB">
<feFlood flood-opacity="0" result="BackgroundImageFix"/>
<feBlend mode="normal" in="SourceGraphic" in2="BackgroundImageFix" result="shape"/>
<feGaussianBlur stdDeviation="41.3" result="effect1_foregroundBlur_1_64"/>
</filter>
<filter id="filter2_f_1_64" x="-36.2517" y="-25.9325" width="255.446" height="255.446" filterUnits="userSpaceOnUse" color-interpolation-filters="sRGB">
<feFlood flood-opacity="0" result="BackgroundImageFix"/>
<feBlend mode="normal" in="SourceGraphic" in2="BackgroundImageFix" result="shape"/>
<feGaussianBlur stdDeviation="41.3" result="effect1_foregroundBlur_1_64"/>
</filter>
<filter id="filter3_i_1_64" x="63.9745" y="16.8517" width="16.4167" height="16.9659" filterUnits="userSpaceOnUse" color-interpolation-filters="sRGB">
<feFlood flood-opacity="0" result="BackgroundImageFix"/>
<feBlend mode="normal" in="SourceGraphic" in2="BackgroundImageFix" result="shape"/>
<feColorMatrix in="SourceAlpha" type="matrix" values="0 0 0 0 0 0 0 0 0 0 0 0 0 0 0 0 0 0 127 0" result="hardAlpha"/>
<feOffset dy="-2"/>
<feGaussianBlur stdDeviation="4.9"/>
<feComposite in2="hardAlpha" operator="arithmetic" k2="-1" k3="1"/>
<feColorMatrix type="matrix" values="0 0 0 0 0.759338 0 0 0 0 0.848393 0 0 0 0 0.94858 0 0 0 1 0"/>
<feBlend mode="normal" in2="shape" result="effect1_innerShadow_1_64"/>
</filter>
<filter id="filter4_ddddd_1_64" x="-25.4618" y="19.2295" width="113.998" height="93.4522" filterUnits="userSpaceOnUse" color-interpolation-filters="sRGB">
<feFlood flood-opacity="0" result="BackgroundImageFix"/>
<feColorMatrix in="SourceAlpha" type="matrix" values="0 0 0 0 0 0 0 0 0 0 0 0 0 0 0 0 0 0 127 0" result="hardAlpha"/>
<feOffset dx="-2" dy="1"/>
<feGaussianBlur stdDeviation="2"/>
<feColorMatrix type="matrix" values="0 0 0 0 0 0 0 0 0 0.290196 0 0 0 0 0.760784 0 0 0 0.49 0"/>
<feBlend mode="normal" in2="BackgroundImageFix" result="effect1_dropShadow_1_64"/>
<feColorMatrix in="SourceAlpha" type="matrix" values="0 0 0 0 0 0 0 0 0 0 0 0 0 0 0 0 0 0 127 0" result="hardAlpha"/>
<feOffset dx="-6" dy="4"/>
<feGaussianBlur stdDeviation="3.5"/>
<feColorMatrix type="matrix" values="0 0 0 0 0 0 0 0 0 0.290196 0 0 0 0 0.760784 0 0 0 0.43 0"/>
<feBlend mode="normal" in2="effect1_dropShadow_1_64" result="effect2_dropShadow_1_64"/>
<feColorMatrix in="SourceAlpha" type="matrix" values="0 0 0 0 0 0 0 0 0 0 0 0 0 0 0 0 0 0 127 0" result="hardAlpha"/>
<feOffset dx="-14" dy="10"/>
<feGaussianBlur stdDeviation="5"/>
<feColorMatrix type="matrix" values="0 0 0 0 0 0 0 0 0 0.290196 0 0 0 0 0.760784 0 0 0 0.25 0"/>
<feBlend mode="normal" in2="effect2_dropShadow_1_64" result="effect3_dropShadow_1_64"/>
<feColorMatrix in="SourceAlpha" type="matrix" values="0 0 0 0 0 0 0 0 0 0 0 0 0 0 0 0 0 0 127 0" result="hardAlpha"/>
<feOffset dx="-24" dy="17"/>
<feGaussianBlur stdDeviation="6"/>
<feColorMatrix type="matrix" values="0 0 0 0 0 0 0 0 0 0.290196 0 0 0 0 0.760784 0 0 0 0.07 0"/>
<feBlend mode="normal" in2="effect3_dropShadow_1_64" result="effect4_dropShadow_1_64"/>
<feColorMatrix in="SourceAlpha" type="matrix" values="0 0 0 0 0 0 0 0 0 0 0 0 0 0 0 0 0 0 127 0" result="hardAlpha"/>
<feOffset dx="-38" dy="27"/>
<feGaussianBlur stdDeviation="6.5"/>
<feColorMatrix type="matrix" values="0 0 0 0 0 0 0 0 0 0.290196 0 0 0 0 0.760784 0 0 0 0.01 0"/>
<feBlend mode="normal" in2="effect4_dropShadow_1_64" result="effect5_dropShadow_1_64"/>
<feBlend mode="normal" in="SourceGraphic" in2="effect5_dropShadow_1_64" result="shape"/>
</filter>
<linearGradient id="paint0_linear_1_64" x1="52" y1="0" x2="52" y2="104" gradientUnits="userSpaceOnUse">
<stop stop-color="#4CB5FB"/>
<stop offset="1" stop-color="#125BE6"/>
</linearGradient>
<linearGradient id="paint1_linear_1_64" x1="39.3195" y1="36.3943" x2="46.3798" y2="85.7795" gradientUnits="userSpaceOnUse">
<stop stop-color="#8396A4"/>
<stop offset="1" stop-color="#BFD8EA"/>
</linearGradient>
<linearGradient id="paint2_linear_1_64" x1="56.0373" y1="22.2295" x2="56.0373" y2="72.6818" gradientUnits="userSpaceOnUse">
<stop stop-color="#EDEDED"/>
<stop offset="1" stop-color="#EFF7FF"/>
</linearGradient>
<linearGradient id="paint3_linear_1_64" x1="25.9998" y1="31" x2="50.4998" y2="40" gradientUnits="userSpaceOnUse">
<stop stop-color="white"/>
<stop offset="1" stop-color="white" stop-opacity="0"/>
</linearGradient>
<linearGradient id="paint4_linear_1_64" x1="68.4998" y1="31" x2="86.9998" y2="67.5" gradientUnits="userSpaceOnUse">
<stop stop-color="#EDEDED"/>
<stop offset="1" stop-color="#DADADA"/>
</linearGradient>
<linearGradient id="paint5_linear_1_64" x1="43.8948" y1="33.7485" x2="-39.4149" y2="76.9678" gradientUnits="userSpaceOnUse">
<stop stop-color="white"/>
<stop offset="1" stop-color="white" stop-opacity="0"/>
</linearGradient>
<linearGradient id="paint6_linear_1_64" x1="110.382" y1="34.9727" x2="74.753" y2="45.0762" gradientUnits="userSpaceOnUse">
<stop stop-color="white"/>
<stop offset="1" stop-color="white" stop-opacity="0"/>
</linearGradient>
<clipPath id="clip0_1_64">
<rect width="104" height="104" rx="27" fill="white"/>
</clipPath>
</defs>
</svg>
